<?xml version="1.0" encoding="utf-8"?>
<!-- Generator: Adobe Illustrator 15.1.0, SVG Export Plug-In . SVG Version: 6.00 Build 0)  -->
<!DOCTYPE svg PUBLIC "-//W3C//DTD SVG 1.1//EN" "http://www.w3.org/Graphics/SVG/1.1/DTD/svg11.dtd">
<svg version="1.1" xmlns="http://www.w3.org/2000/svg" xmlns:xlink="http://www.w3.org/1999/xlink" x="0px" y="0px" width="62px"
	 height="47.868px" viewBox="19 19.483 62 47.868" style="enable-background:new 19 19.483 62 47.868;" xml:space="preserve">
<style type="text/css">
<![CDATA[
	.st0{fill:#53534A;}
	.st1{display:none;}
]]>
</style>
<g id="Layer_1">
	<circle class="st1" cx="52" cy="53.483" r="31"/>
	<g>
		<path class="st0" d="M38.231,61.369c1.786-1.021,3.946-2.238,4.933-4.159c0.752-1.466,0.332-5.05-0.02-6.624
			c-0.601-0.389-1.016-1.594-1.356-2.197c-0.359-0.637-0.648-1.324-1.086-1.914c-0.598-0.805-1.592-1.182-2.242-1.936
			c-0.434-0.502-0.619-1.124-0.834-1.74c-0.257-0.736-0.131-1.334-0.246-2.161c-0.051-0.354,0.13-0.765,0.34-1.064
			c0.258-0.368,0.729-0.44,0.848-0.906c0.146-0.577-0.178-1.253-0.239-1.823c-0.066-0.609-0.225-1.58-0.221-2.191
			c0.01-2.217-0.4-4.217,1.375-5.969c0.624-0.614,1.333-1.145,2.01-1.699c0.26-0.828,1.507-1.338,2.235-1.616
			c0.947-0.36,1.943-0.562,2.914-0.851c2.931-0.873,6.297-0.78,8.866,1.029c0.843,0.594,2.005,0.084,2.893,0.594
			c0.855,0.492,1.875,1.629,1.777,2.678c0.532,2.353,1.176,4.893,1.301,7.342c0.033,0.654,0.072,1.512-0.201,2.07
			c2.228,1.482,1.137,4.562-0.166,6.129c-0.469,0.562-1.535,1.26-1.772,1.957c-0.353,1.025-0.787,2.031-1.408,2.938
			c-0.519,0.756-0.407,0.184-0.925,1.344c-0.35,1.576-0.881,5.146-0.131,6.61c0.986,1.921,3.146,3.138,4.935,4.159
			c2.37,1.355,5.019,2.352,7.55,3.361c2.211,0.885,4.508,1.567,6.653,2.605C79.163,62.483,81,56.699,81,50.483
			c0-17.121-13.879-31-31-31c-17.121,0-31,13.879-31,31c0,6.223,1.84,12.012,4.997,16.867c2.154-1.048,4.463-1.731,6.685-2.62
			C33.213,63.719,35.86,62.725,38.231,61.369z"/>
	</g>
</g>
<g id="Layer_2">
</g>
</svg>
